<svg height="2078" width="720" xmlns="http://www.w3.org/2000/svg">
<rect height="2078" fill="#555" width="720"></rect>
<text fill="#7f7" font-family="Courier New" font-size="12" xml:space="preserve">
<tspan x="10" y="26"></tspan>
<tspan x="10" y="42">&gt; npmdoc-jslint-lite@0.0.1 test /home/travis/build/npmdoc/node-npmdoc-jslint-lite</tspan>
<tspan x="10" y="58">&gt; (set -e; export PORT=$(utility2 shServerPortRandom); utility2 test test.js)</tspan>
<tspan x="10" y="74"></tspan>
<tspan x="10" y="90"></tspan>
<tspan x="10" y="106">[MODE_BUILD=npmTest] - 2017-03-18T10:40:38Z - npm-testing /home/travis/build/npmdoc/node-npmdoc-\</tspan>
<tspan x="10" y="122">jslint-lite</tspan>
<tspan x="10" y="138"></tspan>
<tspan x="10" y="154"></tspan>
<tspan x="10" y="170">covering $ /home/travis/.nvm/versions/node/v7.7.3/bin/node /home/travis/build/npmdoc/node-npmdoc\</tspan>
<tspan x="10" y="186">-jslint-lite/test.js</tspan>
<tspan x="10" y="202">merging file:///home/travis/build/npmdoc/node-npmdoc-jslint-lite/tmp/build/test-report.json to t\</tspan>
<tspan x="10" y="218">est-report</tspan>
<tspan x="10" y="234">&gt; server listening on http-port 40253</tspan>
<tspan x="10" y="250">apidocCreate - normalizing dir jslint-lite</tspan>
<tspan x="10" y="266">apidocCreate - normalized dir /home/travis/build/npmdoc/node-npmdoc-jslint-lite/node_modules/jsl\</tspan>
<tspan x="10" y="282">int-lite</tspan>
<tspan x="10" y="298">created apidoc file:///home/travis/build/npmdoc/node-npmdoc-jslint-lite/tmp/build/apidoc.html</tspan>
<tspan x="10" y="314"></tspan>
<tspan x="10" y="330"></tspan>
<tspan x="10" y="346">browserTest - created electron entry-page /home/travis/build/npmdoc/node-npmdoc-jslint-lite/tmp/\</tspan>
<tspan x="10" y="362">electron.15ae1013da20.b2405c2ce4bec.html</tspan>
<tspan x="10" y="378"></tspan>
<tspan x="10" y="394">apidocCreate - normalizing dir jslint-lite</tspan>
<tspan x="10" y="410">apidocCreate - normalized dir /home/travis/build/npmdoc/node-npmdoc-jslint-lite/node_modules/jsl\</tspan>
<tspan x="10" y="426">int-lite</tspan>
<tspan x="10" y="442">Xlib:  extension "RANDR" missing on display ":99.0".</tspan>
<tspan x="10" y="458">[node test-case 1 of 6 passed] - testCase_buildLib_default</tspan>
<tspan x="10" y="474">[node test-case 2 of 6 passed] - testCase_buildReadme_default</tspan>
<tspan x="10" y="490">[node test-case 3 of 6 passed] - testCase_buildTest_default</tspan>
<tspan x="10" y="506"></tspan>
<tspan x="10" y="522">browserTest - created electron entry-page /home/travis/build/npmdoc/node-npmdoc-jslint-lite/tmp/\</tspan>
<tspan x="10" y="538">electron.15ae1013e480.f352886a2c13a.html</tspan>
<tspan x="10" y="554"></tspan>
<tspan x="10" y="570">(node:4441) DeprecationWarning: node --debug is deprecated. Please use node --inspect instead.</tspan>
<tspan x="10" y="586">Xlib:  extension "RANDR" missing on display ":99.0".</tspan>
<tspan x="10" y="602">&gt; server listening on http-port 56858</tspan>
<tspan x="10" y="618">merging file:///home/travis/build/npmdoc/node-npmdoc-jslint-lite/tmp/build/test-report.json to t\</tspan>
<tspan x="10" y="634">est-report</tspan>
<tspan x="10" y="650">Xlib:  extension "RANDR" missing on display ":99.0".</tspan>
<tspan x="10" y="666">merging file:///home/travis/build/npmdoc/node-npmdoc-jslint-lite/tmp/build/test-report.json to t\</tspan>
<tspan x="10" y="682">est-report</tspan>
<tspan x="10" y="698">[4475:0318/104040:WARNING:audio_manager.cc(314)] Multiple instances of AudioManager detected</tspan>
<tspan x="10" y="714">[4475:0318/104040:WARNING:audio_manager.cc(275)] Multiple instances of AudioManager detected</tspan>
<tspan x="10" y="730">Xlib:  extension "RANDR" missing on display ":99.0".</tspan>
<tspan x="10" y="746">[4455:0318/104040:WARNING:audio_manager.cc(314)] Multiple instances of AudioManager detected</tspan>
<tspan x="10" y="762">[4455:0318/104040:WARNING:audio_manager.cc(275)] Multiple instances of AudioManager detected</tspan>
<tspan x="10" y="778">[4500:0318/104040:ERROR:sandbox_linux.cc(343)] InitializeSandbox() called with multiple threads \</tspan>
<tspan x="10" y="794">in process gpu-process. </tspan>
<tspan x="10" y="810">[4475:0318/104040:ERROR:browser_gpu_channel_host_factory.cc(131)] Failed to create channel.</tspan>
<tspan x="10" y="826">[4518:0318/104040:ERROR:sandbox_linux.cc(343)] InitializeSandbox() called with multiple threads \</tspan>
<tspan x="10" y="842">in process gpu-process. </tspan>
<tspan x="10" y="858">[4455:0318/104040:ERROR:browser_gpu_channel_host_factory.cc(131)] Failed to create channel.</tspan>
<tspan x="10" y="874"></tspan>
<tspan x="10" y="890">browserTest - opened url http://127.0.0.1:40253?modeTest=1</tspan>
<tspan x="10" y="906"></tspan>
<tspan x="10" y="922"></tspan>
<tspan x="10" y="938">browserTest - opened url file:///home/travis/build/npmdoc/node-npmdoc-jslint-lite/tmp/build/apid\</tspan>
<tspan x="10" y="954">oc.html</tspan>
<tspan x="10" y="970"></tspan>
<tspan x="10" y="986">[4475:0318/104042:INFO:CONSOLE(203)] "----------|-----------|-----------|-----------|-----------\</tspan>
<tspan x="10" y="1002">|</tspan>
<tspan x="10" y="1018">File      |   % Stmts |% Branches |   % Funcs |   % Lines |</tspan>
<tspan x="10" y="1034">----------|-----------|-----------|-----------|-----------|</tspan>
<tspan x="10" y="1050">----------|-----------|-----------|-----------|-----------|</tspan>
<tspan x="10" y="1066">All files |       100 |       100 |       100 |       100 |</tspan>
<tspan x="10" y="1082">----------|-----------|-----------|-----------|-----------|</tspan>
<tspan x="10" y="1098">", source: file:///home/travis/build/npmdoc/node-npmdoc-jslint-lite/tmp/electron.15ae1013e480.f3\</tspan>
<tspan x="10" y="1114">52886a2c13a.html (203)</tspan>
<tspan x="10" y="1130">[4475:0318/104042:INFO:CONSOLE(203)] "created coverage file:///tmp/build/coverage.html/index.htm\</tspan>
<tspan x="10" y="1146">l", source: file:///home/travis/build/npmdoc/node-npmdoc-jslint-lite/tmp/electron.15ae1013e480.f\</tspan>
<tspan x="10" y="1162">352886a2c13a.html (203)</tspan>
<tspan x="10" y="1178">[node test-case 4 of 6 passed] - testCase_buildApp_default</tspan>
<tspan x="10" y="1194"></tspan>
<tspan x="10" y="1210">browserTest - created screen-capture file:///home/travis/build/npmdoc/node-npmdoc-jslint-lite/tm\</tspan>
<tspan x="10" y="1226">p/build/screen-capture.npmTest.browser..png</tspan>
<tspan x="10" y="1242"></tspan>
<tspan x="10" y="1258"></tspan>
<tspan x="10" y="1274">browserTest - exit-code 0 - http://127.0.0.1:40253?modeTest=1</tspan>
<tspan x="10" y="1290"></tspan>
<tspan x="10" y="1306"></tspan>
<tspan x="10" y="1322">browserTest - merged coverage from /home/travis/build/npmdoc/node-npmdoc-jslint-lite/tmp/coverag\</tspan>
<tspan x="10" y="1338">e.npmTest.browser.%2F.json</tspan>
<tspan x="10" y="1354"></tspan>
<tspan x="10" y="1370"></tspan>
<tspan x="10" y="1386">browserTest - merging test-report from /home/travis/build/npmdoc/node-npmdoc-jslint-lite/tmp/tes\</tspan>
<tspan x="10" y="1402">t-report.npmTest.browser.%2F.json</tspan>
<tspan x="10" y="1418"></tspan>
<tspan x="10" y="1434">[node test-case 5 of 6 passed] - testCase_webpage_default</tspan>
<tspan x="10" y="1450"></tspan>
<tspan x="10" y="1466">browserTest - created screen-capture file:///home/travis/build/npmdoc/node-npmdoc-jslint-lite/tm\</tspan>
<tspan x="10" y="1482">p/build/screen-capture.npmTest.browser._2Fhome_2Ftravis_2Fbuild_2Fnpmdoc_2Fnode-npmdoc-jslint-li\</tspan>
<tspan x="10" y="1498">te_2Ftmp_2Fbuild_2Fapidoc.html.png</tspan>
<tspan x="10" y="1514"></tspan>
<tspan x="10" y="1530"></tspan>
<tspan x="10" y="1546">browserTest - exit-code 0 - file:///home/travis/build/npmdoc/node-npmdoc-jslint-lite/tmp/build/a\</tspan>
<tspan x="10" y="1562">pidoc.html</tspan>
<tspan x="10" y="1578"></tspan>
<tspan x="10" y="1594">[node test-case 6 of 6 passed] - testCase_buildApidoc_default</tspan>
<tspan x="10" y="1610">--------------------------------|-----------|-----------|-----------|-----------|</tspan>
<tspan x="10" y="1626">File                            |   % Stmts |% Branches |   % Funcs |   % Lines |</tspan>
<tspan x="10" y="1642">--------------------------------|-----------|-----------|-----------|-----------|</tspan>
<tspan x="10" y="1658">   node-npmdoc-jslint-lite/     |       100 |       100 |       100 |       100 |</tspan>
<tspan x="10" y="1674">      example.js                |       100 |       100 |       100 |       100 |</tspan>
<tspan x="10" y="1690">      lib.npmdoc_jslint_lite.js |       100 |       100 |       100 |       100 |</tspan>
<tspan x="10" y="1706">      test.js                   |       100 |       100 |       100 |       100 |</tspan>
<tspan x="10" y="1722">--------------------------------|-----------|-----------|-----------|-----------|</tspan>
<tspan x="10" y="1738">All files                       |       100 |       100 |       100 |       100 |</tspan>
<tspan x="10" y="1754">--------------------------------|-----------|-----------|-----------|-----------|</tspan>
<tspan x="10" y="1770"></tspan>
<tspan x="10" y="1786">created coverage file:///home/travis/build/npmdoc/node-npmdoc-jslint-lite/tmp/build/coverage.htm\</tspan>
<tspan x="10" y="1802">l/index.html</tspan>
<tspan x="10" y="1818">merging file:///home/travis/build/npmdoc/node-npmdoc-jslint-lite/tmp/build/test-report.json to t\</tspan>
<tspan x="10" y="1834">est-report</tspan>
<tspan x="10" y="1850"></tspan>
<tspan x="10" y="1866">-------------------------------------------------------</tspan>
<tspan x="10" y="1882">| test-report - buildNpmdoc - node - linux v7.7.3 - 2017-03-18T10:40:09.233Z</tspan>
<tspan x="10" y="1898">|   35441 ms            0 failed        6 passed      |</tspan>
<tspan x="10" y="1914">-------------------------------------------------------</tspan>
<tspan x="10" y="1930"></tspan>
<tspan x="10" y="1946">created test-report file:///home/travis/build/npmdoc/node-npmdoc-jslint-lite/tmp/build/test-repo\</tspan>
<tspan x="10" y="1962">rt.html</tspan>
<tspan x="10" y="1978"></tspan>
<tspan x="10" y="1994"></tspan>
<tspan x="10" y="2010">npmTest - 0 failed tests</tspan>
<tspan x="10" y="2026"></tspan>
<tspan x="10" y="2042"></tspan>
<tspan x="10" y="2058">[MODE_BUILD=npmTest] - 2017-03-18T10:40:47Z - EXIT_CODE - 0</tspan>
</text>
</svg>
